
        <svg xmlns="http://www.w3.org/2000/svg" xmlns:xlink="http://www.w3.org/1999/xlink" version="1.1" width="3189.873417721519" height="1348.1012658227849" viewBox="0 0 3189.873417721519 1348.1012658227849">
			
			<g transform="scale(9.49367088607595) translate(10, 10)">
				<defs id="SvgjsDefs7009"/><g id="SvgjsG7010" featureKey="symbolContainer" transform="matrix(1,0,0,1,0,0)" fill="#fff"><rect width="96" height="122" rx="10"/></g><g id="SvgjsG7011" featureKey="monogramFeature-0" transform="matrix(2.12422955412645,0,0,2.12422955412645,16.74738035741598,-20.115241989641973)" fill="#000000"><path d="M8.886 53.265 c-0.8448 0 -1.5294 -0.6858 -1.5294 -1.5306 l0 -26.608 c0 -0.8436 0.32162 -1.401 1.0518 -1.8234 l11.077 -6.4026 c0.7308 -0.4224 1.3746 -0.4224 2.1054 0 l5.2511 3.0354 c0.7302 0.4224 1.0518 0.9798 1.0518 1.8234 l0 29.975 c0 0.8448 -0.6852 1.53 -1.53 1.53 s-1.53 -0.6852 -1.53 -1.53 l0 -29.425 l-4.296 -2.4834 l-10.121 5.8506 l0 26.057 c0 0.8448 -0.6852 1.53 -1.53 1.53 z M8.8866 59.99941406 c-0.28799 0 -0.5574 -0.078048 -0.7878 -0.21662 l-5.5158 -3.1884 c-0.7302 -0.4224 -1.0518 -0.9798 -1.0518 -1.8234 l0 -33.01 c0 -0.8436 0.32162 -1.401 1.0518 -1.8234 l5.5158 -3.1884 c0.23039 -0.13858 0.49981 -0.21838 0.7878 -0.21838 c0.8448 0 1.53 0.6852 1.53 1.53 c0 0.57598 -0.31858 1.0776 -0.78894 1.3386 l-5.037 2.9112 l0 31.909 l5.037 2.9112 c0.47039 0.26098 0.78894 0.7626 0.78894 1.3386 c0 0.8448 -0.6852 1.53 -1.53 1.53 z M14.713 60.0011719 c-0.8448 0 -1.5294 -0.68586 -1.5294 -1.5307 l0 -16.505 c0 -0.8436 0.32162 -1.401 1.0518 -1.8234 l5.5314 -3.2016 c0.24117 -0.13922 0.50396 -0.20519 0.76374 -0.20519 c0.52858 0 1.0428 0.27422 1.326 0.765 c0.13922 0.24117 0.20519 0.50396 0.20519 0.76374 l0.0072072 16.839 c0 0.8448 -0.6852 1.53 -1.53 1.53 s-1.53 -0.6852 -1.53 -1.53 l0 -14.186 l-2.766 1.599 l0 15.955 c0 0.8448 -0.6852 1.53 -1.53 1.53 z M14.713 36.428 c-0.8448 0 -1.5294 -0.68586 -1.5294 -1.5307 l0 -6.4026 c0 -0.8436 0.32221 -1.4004 1.0524 -1.8234 l5.5314 -3.2016 c0.24117 -0.13922 0.50396 -0.20519 0.76374 -0.20519 c0.52858 0 1.0428 0.27422 1.326 0.765 c0.13922 0.24117 0.20519 0.50396 0.20519 0.76374 l0.0072072 6.7368 c0 0.8448 -0.6858 1.53 -1.5306 1.53 s-1.53 -0.6852 -1.53 -1.53 l0 -4.0836 l-2.766 1.599 l0 5.8524 c0 0.8448 -0.6852 1.53 -1.53 1.53 z"/></g><g id="SvgjsG7012" featureKey="nameFeature-0" transform="matrix(0.7796661507041277,0,0,0.7796661507041277,114.44066769859174,32.07453770077718)" fill="#fff"><path d="M2 40 l0 -16.8 c0 -11.16 0 -15.56 6 -15.56 s6 4.4 6 15.56 l0 16.8 l-4 0 l0 -9.2 l-4 0 l0 9.2 l-4 0 z M6 27.6 l4 0 l0 -4.4 c0 -10.4 0 -12.36 -2 -12.36 s-2 1.96 -2 12.36 l0 4.4 z M18.4 11.600000000000001 l0 -3.6 l12 0 l0 3.6 l-4 0 l0 28.4 l-4 0 l0 -28.4 l-4 0 z M34.8 40 l0 -32 l4 0 l0 13.6 l4 0 l0 -13.6 l4 0 l0 32 l-4 0 l0 -15.2 l-4 0 l0 15.2 l-4 0 z M52.8 40 l0 -32 l4 0 l0 28 l5.2 0 l0 4 l-9.2 0 z M66.39999999999999 40 l0 -32 l9.2 0 l0 3.2 l-5.2 0 l0 10.4 l4.4 0 l0 3.2 l-4.4 0 l0 11.2 l5.2 0 l0 4 l-9.2 0 z M78.8 11.600000000000001 l0 -3.6 l12 0 l0 3.6 l-4 0 l0 28.4 l-4 0 l0 -28.4 l-4 0 z M95.19999999999999 40 l0 -32 l4 0 l0 32 l-4 0 z M104.79999999999998 23.16 c0 -11.16 0 -15.56 5.6 -15.56 c4.12 0 5.24 2.52 5.52 8.56 l-3.72 0 c-0.16 -4.36 -0.6 -5.36 -1.8 -5.36 c-1.84 0 -1.84 1.96 -1.84 12.36 c0 11.56 0 13.24 1.84 13.24 c1.32 0 1.72 -1 1.8 -6.16 l3.76 0 c-0.24 7.4 -1.24 10.16 -5.56 10.16 c-5.6 0 -5.6 -4.44 -5.6 -17.24 z M131.56 40 l0 -32 l6.48 0 c4.12 0 5.2 2.52 5.52 8.56 l0 1.28 c-0.32 6.04 -1.4 8.56 -5.52 8.56 l-2.48 0 l0 13.6 l-4 0 z M135.56 23.2 l2.48 0 c1.2 0 1.64 -1 1.8 -5.36 l0 -1.28 c-0.16 -4.36 -0.6 -5.36 -1.8 -5.36 l-2.48 0 l0 12 z M148.36 40 l0 -32 l6.48 0 c4.12 0 5.52 2.52 5.52 7.36 c0 4.36 -0.52 6.84 -1.76 8.04 l0 0.24 c1.04 0.36 1.36 2.24 1.76 6.92 l0.8 9.44 l-4 0 l-0.52 -9.44 c-0.28 -4.76 -1 -5.76 -2.2 -5.76 l-2.08 0 l0 15.2 l-4 0 z M152.36 21.6 l2.48 0 c1.4 0 1.8 -1.4 1.8 -6.24 c0 -3.16 -0.6 -4.16 -1.8 -4.16 l-2.48 0 l0 10.4 z M165.96 23.16 c0 -11.16 0.24 -15.56 6.24 -15.56 s6.24 4.4 6.24 15.56 c0 12.8 -0.24 17.24 -6.24 17.24 s-6.24 -4.44 -6.24 -17.24 z M169.96 23.16 c0 11.56 0 13.24 2.24 13.24 s2.24 -1.68 2.24 -13.24 c0 -10.4 0 -12.36 -2.24 -12.36 s-2.24 1.96 -2.24 12.36 z M184.04000000000002 26.4 l0 -3.2 l8 0 l0 3.2 l-8 0 z M196.44000000000003 40 l7.2 -28.8 l-6.4 0 l0 -3.2 l11.2 0 l-7 28 l6.2 0 l0 4 l-11.2 0 z M212.44000000000003 23.16 c0 -11.16 0.24 -15.56 6.24 -15.56 s6.24 4.4 6.24 15.56 c0 12.8 -0.24 17.24 -6.24 17.24 s-6.24 -4.44 -6.24 -17.24 z M216.44000000000003 23.16 c0 11.56 0 13.24 2.24 13.24 s2.24 -1.68 2.24 -13.24 c0 -10.4 0 -12.36 -2.24 -12.36 s-2.24 1.96 -2.24 12.36 z M230.52000000000004 40 l0 -32 l3.6 0 l5.24 19.6 l-0.04 -0.4 l0 -19.2 l4 0 l0 32 l-3.6 0 l-5.24 -17.6 l0.04 0.4 l0 17.2 l-4 0 z M249.32000000000005 40 l0 -32 l9.2 0 l0 3.2 l-5.2 0 l0 10.4 l4.4 0 l0 3.2 l-4.4 0 l0 11.2 l5.2 0 l0 4 l-9.2 0 z"/></g><g id="SvgjsG7013" featureKey="sloganFeature-0" transform="matrix(0.727273080368844,0,0,0.727273080368844,135.48050907229083,72.84436249545965)" fill="#fff"><path d="M7.2286 11.2 l-1.9429 3.5714 l-4.5714 -7.3429 l0 -1.7143 l3.2857 0 z M10.857 5.714 l3.2857 0 l0 1.7143 l-4.8571 7.8571 l0 4.7143 l-3.6857 0 l0 -4.7429 z M24.71432857142857 20 l-1.5714 0 l-2.1429 -2.1429 l0 -10 l2.1429 -2.1429 l1.5714 0 l0 14.286 z M31.42842857142857 5.714 l2.1429 2.1429 l0 10 l-2.1429 2.1429 l-6.1429 0 l0 -3.1429 l4.5714 0 l0 -8 l-4.5714 0 l0 -3.1429 l6.1429 0 z M44.857185714285706 20 l-1.5714 0 l-2.1429 -2.1429 l0 -12.143 l3.7143 0 l0 14.286 z M50.00028571428571 5.714 l3.7143 0 l0 12.143 l-2.1429 2.1429 l-6.1429 0 l0 -3.1429 l4.5714 0 l0 -11.143 z M65.00004285714284 20 l-3.7143 0 l0 -14.286 l3.7143 0 l0 14.286 z M74.14314285714285 7.856999999999999 l0 5 l-2.1429 2.1429 l2.1429 3.2857 l0 1.7143 l-3.4286 0 l-2.9714 -4.8571 l-2.1714 0 l0 -3.1429 l4.8571 0 l0 -3.1429 l-4.8571 0 l0 -3.1429 l6.4286 0 z M97.28575714285714 20 l-1.5714 0 l-2.1429 -2.1429 l0 -10 l2.1429 -2.1429 l1.5714 0 l0 14.286 z M104.28585714285714 5.714 l2.1429 2.1429 l0 2.1429 l-2.7143 0 l-1.1429 -1.1429 l-4.7143 0 l0 -3.1429 l6.4286 0 z M99.42855714285714 14.4286 l0 -3.1429 l7 0 l0 6.5714 l-2.1429 2.1429 l-6.4286 0 l0 -3.1429 l4.8571 0 l0 -2.4286 l-3.2857 0 z M119.80002857142857 11.2 l-1.9429 3.5714 l-4.5714 -7.3429 l0 -1.7143 l3.2857 0 z M123.42842857142857 5.714 l3.2857 0 l0 1.7143 l-4.8571 7.8571 l0 4.7143 l-3.6857 0 l0 -4.7429 z M144.14285714285714 5.714 l3.7143 0 l0 14.286 l-3.7143 0 l0 -8 l-2.5143 4.8571 l-1.8571 0 l-5.7143 -11.143 l3.2286 0 l3.4286 6.4857 z M133.57145714285713 6 l3.7143 7.2571 l0 6.7429 l-3.7143 0 l0 -14 z M171.00004285714286 20 l-3.7143 0 l0 -14.286 l3.7143 0 l0 14.286 z M180.14314285714286 7.856999999999999 l0 3.4857 l-1.5143 1.5143 l1.5143 1.5143 l0 3.4857 l-2.1429 2.1429 l-6.4286 0 l0 -3.1429 l4.8571 0 l0 -2.4286 l-4.8571 0 l0 -3.1429 l4.8571 0 l0 -2.4286 l-4.8571 0 l0 -3.1429 l6.4286 0 z M191.42861428571427 20 l-3.7143 0 l0 -14.286 l3.7143 0 l0 14.286 z M200.57171428571428 7.856999999999999 l0 5 l-2.1429 2.1429 l2.1429 3.2857 l0 1.7143 l-3.4286 0 l-2.9714 -4.8571 l-2.1714 0 l0 -3.1429 l4.8571 0 l0 -3.1429 l-4.8571 0 l0 -3.1429 l6.4286 0 z M211.8571857142857 20 l-1.5714 0 l-2.1429 -2.1429 l0 -10 l2.1429 -2.1429 l1.5714 0 l0 14.286 z M218.5712857142857 5.714 l2.1429 2.1429 l0 10 l-2.1429 2.1429 l-6.1429 0 l0 -3.1429 l4.5714 0 l0 -8 l-4.5714 0 l0 -3.1429 l6.1429 0 z"/></g>
			</g>
		</svg>
	